<?xml version="1.0" standalone="no"?>
<!DOCTYPE svg PUBLIC "-//W3C//DTD SVG 20010904//EN"
 "http://www.w3.org/TR/2001/REC-SVG-20010904/DTD/svg10.dtd">
<svg version="1.0" xmlns="http://www.w3.org/2000/svg"
 width="1083.000000pt" height="1280.000000pt" viewBox="0 0 1083.000000 1280.000000"
 preserveAspectRatio="xMidYMid meet">
<metadata>
Created by potrace 1.15, written by Peter Selinger 2001-2017
</metadata>
<g transform="translate(0.000000,1280.000000) scale(0.100000,-0.100000)"
fill="#000000" stroke="none">
<path d="M197 12786 c-121 -44 -179 -163 -193 -396 -8 -130 14 -231 81 -365
116 -233 303 -415 715 -695 220 -150 315 -222 331 -253 6 -11 13 -79 14 -151
6 -255 43 -443 166 -851 95 -315 101 -343 95 -420 -2 -38 -12 -99 -20 -135
-10 -40 -16 -113 -16 -190 0 -174 13 -276 80 -625 70 -365 73 -440 35 -870
-11 -129 -15 -246 -12 -365 5 -171 5 -177 40 -266 92 -237 189 -364 351 -458
77 -45 86 -59 139 -213 20 -56 45 -119 56 -141 52 -103 211 -229 402 -321 96
-45 98 -47 103 -86 8 -52 -8 -205 -39 -375 -14 -74 -27 -142 -30 -150 -19 -62
-45 -302 -45 -421 0 -132 21 -289 48 -360 6 -14 6 -32 2 -40 -28 -50 -34 -198
-34 -819 1 -647 13 -1136 40 -1564 13 -218 13 -245 -2 -295 -24 -84 -94 -211
-201 -361 -223 -315 -263 -388 -263 -475 0 -98 105 -150 330 -162 183 -9 327
26 462 114 84 55 141 121 169 196 50 132 135 239 230 287 151 77 171 140 145
470 -9 111 -9 111 54 522 46 308 83 467 126 550 l17 33 18 -41 c46 -104 72
-461 50 -689 -7 -66 -16 -289 -21 -495 -9 -382 -32 -638 -64 -714 -7 -17 -47
-86 -88 -152 -156 -249 -171 -313 -83 -370 56 -37 422 -59 560 -33 71 13 148
47 195 85 20 16 78 76 131 134 l96 105 6 104 c8 121 30 224 57 268 11 18 36
41 57 52 60 30 78 56 77 109 -5 180 -14 292 -28 330 -8 23 -41 85 -72 137 -43
72 -55 100 -50 119 6 24 11 25 84 28 l77 3 19 55 c26 76 25 222 -2 365 -63
327 -66 354 -65 545 0 154 4 196 20 249 20 66 26 73 76 91 15 5 30 17 34 25 7
20 -20 81 -69 158 -21 32 -38 60 -38 62 0 3 9 5 19 5 48 0 60 62 40 206 -10
73 -9 80 15 133 44 101 57 252 27 333 -6 17 -3 30 12 50 31 41 25 101 -17 194
l-37 78 21 122 c26 154 25 180 -3 237 l-24 46 41 3 c36 3 43 8 58 38 22 46 59
203 98 420 27 151 60 306 76 361 3 13 40 17 232 27 464 25 532 15 532 -80 0
-13 6 -33 14 -44 13 -17 17 -18 48 -5 35 14 125 32 253 51 104 16 172 42 223
86 l42 35 167 -16 c183 -17 255 -33 298 -67 39 -30 73 -110 81 -190 4 -37 12
-74 18 -81 6 -8 81 -56 166 -107 321 -192 460 -311 540 -460 26 -49 73 -114
112 -156 65 -70 71 -82 81 -164 1 -8 24 -20 58 -28 75 -18 110 -55 160 -173
71 -164 134 -226 264 -259 l50 -13 18 -71 c20 -81 115 -279 179 -376 49 -75
123 -152 188 -196 36 -24 55 -49 97 -130 104 -198 128 -346 127 -764 0 -319
-9 -411 -76 -790 -62 -355 -65 -377 -78 -516 -10 -113 -10 -150 5 -265 l16
-134 -55 -150 c-177 -486 -174 -731 10 -821 92 -45 313 -44 490 2 132 34 267
120 349 222 94 119 178 315 231 544 l17 76 43 11 c114 29 173 157 133 290 -10
34 -8 42 24 101 61 112 107 310 107 459 l0 60 28 -15 c34 -18 56 -18 91 1 28
14 45 40 36 54 -15 25 -24 144 -14 190 13 61 67 116 126 127 78 14 83 23 57
105 -23 69 -10 107 71 209 39 49 67 95 71 116 10 55 -1 124 -24 147 -20 19
-22 19 -46 3 -16 -10 -26 -12 -26 -5 0 26 69 179 167 368 l106 204 -7 146 c-4
80 -11 196 -15 256 -9 133 2 262 28 319 10 23 39 66 65 94 35 41 46 60 46 86
0 56 -30 196 -55 258 l-23 57 41 3 c52 4 58 24 24 70 -26 36 -35 56 -47 104
-7 30 -7 31 33 30 27 -1 43 4 50 16 12 18 2 42 -67 161 -32 56 -33 62 -39 195
-6 152 -28 254 -71 326 -14 25 -63 78 -108 118 -46 40 -103 94 -128 119 -38
39 -53 48 -95 54 -121 17 -260 101 -402 241 -107 106 -101 81 -78 299 16 162
45 330 114 680 94 475 121 730 102 942 -36 378 -172 610 -481 819 -530 359
-1119 583 -1765 673 -205 28 -221 30 -466 46 -380 25 -739 19 -1399 -23 -515
-32 -718 -20 -1750 108 -378 47 -660 80 -694 80 -33 0 -16 164 44 425 57 245
72 342 76 495 l5 155 197 100 c372 191 533 326 773 650 l73 100 2 105 c1 143
26 225 134 450 106 220 124 279 118 369 -10 142 -70 178 -219 131 -67 -20
-174 -79 -452 -249 -221 -135 -331 -187 -436 -207 -95 -17 -144 -40 -248 -113
-90 -64 -248 -213 -283 -268 l-27 -42 -29 30 c-44 46 -142 118 -204 149 -94
47 -186 63 -370 64 -151 1 -168 3 -200 23 -81 49 -159 50 -238 1 -31 -19 -38
-20 -87 -8 -97 23 -178 10 -306 -50 -66 -32 -114 -49 -116 -43 -2 6 -27 51
-56 100 -38 65 -81 117 -162 198 -129 129 -197 173 -436 279 -273 122 -338
160 -452 265 -69 64 -91 75 -192 96 -86 18 -158 18 -208 1z"/>
</g>
</svg>
